0
SECTION
2
HEADER
9
$INSUNITS
70
4
9
$ACADVER
1
AC1014
9
$HANDSEED
5
FFFF
0
ENDSEC
0
SECTION
2
TABLES
0
TABLE
2
VPORT
5
8
100
AcDbSymbolTable
0
ENDTAB
0
TABLE
2
LTYPE
5
5
100
AcDbSymbolTable
0
LTYPE
5
14
100
AcDbSymbolTableRecord
100
AcDbLinetypeTableRecord
2
BYBLOCK
70
0
0
LTYPE
5
15
100
AcDbSymbolTableRecord
100
AcDbLinetypeTableRecord
2
BYLAYER
70
0
0
ENDTAB
0
TABLE
2
LAYER
5
2
100
AcDbSymbolTable
70
2
0
LAYER
5
50
100
AcDbSymbolTableRecord
100
AcDbLayerTableRecord
2
0
70
0
6
CONTINUOUS
0
ENDTAB
0
TABLE
2
STYLE
5
3
100
AcDbSymbolTable
70
1
0
STYLE
5
11
100
AcDbSymbolTableRecord
100
AcDbTextStyleTableRecord
2
STANDARD
70
0
0
ENDTAB
0
TABLE
2
VIEW
5
6
100
AcDbSymbolTable
70
0
0
ENDTAB
0
TABLE
2
UCS
5
7
100
AcDbSymbolTable
70
0
0
ENDTAB
0
TABLE
2
APPID
5
9
100
AcDbSymbolTable
70
2
0
APPID
5
12
100
AcDbSymbolTableRecord
100
AcDbRegAppTableRecord
2
ACAD
70
0
0
ENDTAB
0
TABLE
2
DIMSTYLE
5
A
100
AcDbSymbolTable
70
1
0
ENDTAB
0
TABLE
2
BLOCK_RECORD
5
1
100
AcDbSymbolTable
70
1
0
BLOCK_RECORD
5
1F
100
AcDbSymbolTableRecord
100
AcDbBlockTableRecord
2
*MODEL_SPACE
0
BLOCK_RECORD
5
1B
100
AcDbSymbolTableRecord
100
AcDbBlockTableRecord
2
*PAPER_SPACE
0
ENDTAB
0
ENDSEC
0
SECTION
2
BLOCKS
0
BLOCK
5
20
100
AcDbEntity
100
AcDbBlockBegin
2
*MODEL_SPACE
0
ENDBLK
5
21
100
AcDbEntity
100
AcDbBlockEnd
0
BLOCK
5
1C
100
AcDbEntity
100
AcDbBlockBegin
2
*PAPER_SPACE
0
ENDBLK
5
1D
100
AcDbEntity
100
AcDbBlockEnd
0
ENDSEC
0
SECTION
2
ENTITIES
0
LWPOLYLINE
5
100
100
AcDbEntity
8
0
100
AcDbPolyline
90
4
70
1
43
0.0
10
-508.00000000000006
20
120.5
10
-528
20
120.5
10
-528
20
114.50000000000001
10
-508.00000000000006
20
114.50000000000001
0
LWPOLYLINE
5
101
100
AcDbEntity
8
0
100
AcDbPolyline
90
4
70
1
43
0.0
10
-418.00000000000006
20
120.5
10
-438.00000000000006
20
120.5
10
-438.00000000000006
20
114.50000000000001
10
-418.00000000000006
20
114.50000000000001
0
LWPOLYLINE
5
102
100
AcDbEntity
8
0
100
AcDbPolyline
90
4
70
1
43
0.0
10
-328.00000000000006
20
120.5
10
-348.00000000000006
20
120.5
10
-348.00000000000006
20
114.50000000000001
10
-328.00000000000006
20
114.50000000000001
0
LWPOLYLINE
5
103
100
AcDbEntity
8
0
100
AcDbPolyline
90
4
70
1
43
0.0
10
-238.00000000000006
20
120.5
10
-258.00000000000006
20
120.5
10
-258.00000000000006
20
114.50000000000001
10
-238.00000000000006
20
114.50000000000001
0
LWPOLYLINE
5
104
100
AcDbEntity
8
0
100
AcDbPolyline
90
4
70
1
43
0.0
10
-508.00000000000006
20
165.5
10
-528
20
165.5
10
-528
20
159.5
10
-508.00000000000006
20
159.5
0
LWPOLYLINE
5
105
100
AcDbEntity
8
0
100
AcDbPolyline
90
4
70
1
43
0.0
10
-418.00000000000006
20
165.5
10
-438.00000000000006
20
165.5
10
-438.00000000000006
20
159.5
10
-418.00000000000006
20
159.5
0
LWPOLYLINE
5
106
100
AcDbEntity
8
0
100
AcDbPolyline
90
4
70
1
43
0.0
10
-328.00000000000006
20
165.5
10
-348.00000000000006
20
165.5
10
-348.00000000000006
20
159.5
10
-328.00000000000006
20
159.5
0
LWPOLYLINE
5
107
100
AcDbEntity
8
0
100
AcDbPolyline
90
4
70
1
43
0.0
10
-238.00000000000006
20
165.5
10
-258.00000000000006
20
165.5
10
-258.00000000000006
20
159.5
10
-238.00000000000006
20
159.5
0
LWPOLYLINE
5
108
100
AcDbEntity
8
0
100
AcDbPolyline
90
4
70
1
43
0.0
10
-508.00000000000006
20
210.5
10
-528
20
210.5
10
-528
20
204.50000000000003
10
-508.00000000000006
20
204.50000000000003
0
LWPOLYLINE
5
109
100
AcDbEntity
8
0
100
AcDbPolyline
90
4
70
1
43
0.0
10
-418.00000000000006
20
210.5
10
-438.00000000000006
20
210.5
10
-438.00000000000006
20
204.50000000000003
10
-418.00000000000006
20
204.50000000000003
0
LWPOLYLINE
5
110
100
AcDbEntity
8
0
100
AcDbPolyline
90
4
70
1
43
0.0
10
-328.00000000000006
20
210.5
10
-348.00000000000006
20
210.5
10
-348.00000000000006
20
204.50000000000003
10
-328.00000000000006
20
204.50000000000003
0
LWPOLYLINE
5
111
100
AcDbEntity
8
0
100
AcDbPolyline
90
4
70
1
43
0.0
10
-238.00000000000006
20
210.5
10
-258.00000000000006
20
210.5
10
-258.00000000000006
20
204.50000000000003
10
-238.00000000000006
20
204.50000000000003
0
LWPOLYLINE
5
112
100
AcDbEntity
8
0
100
AcDbPolyline
90
4
70
1
43
0.0
10
-508.00000000000006
20
255.5
10
-528
20
255.5
10
-528
20
249.50000000000003
10
-508.00000000000006
20
249.50000000000003
0
LWPOLYLINE
5
113
100
AcDbEntity
8
0
100
AcDbPolyline
90
4
70
1
43
0.0
10
-418.00000000000006
20
255.5
10
-438.00000000000006
20
255.5
10
-438.00000000000006
20
249.50000000000003
10
-418.00000000000006
20
249.50000000000003
0
LWPOLYLINE
5
114
100
AcDbEntity
8
0
100
AcDbPolyline
90
4
70
1
43
0.0
10
-328.00000000000006
20
255.5
10
-348.00000000000006
20
255.5
10
-348.00000000000006
20
249.50000000000003
10
-328.00000000000006
20
249.50000000000003
0
LWPOLYLINE
5
115
100
AcDbEntity
8
0
100
AcDbPolyline
90
4
70
1
43
0.0
10
-238.00000000000006
20
255.5
10
-258.00000000000006
20
255.5
10
-258.00000000000006
20
249.50000000000003
10
-238.00000000000006
20
249.50000000000003
0
LWPOLYLINE
5
116
100
AcDbEntity
8
0
100
AcDbPolyline
90
4
70
1
43
0.0
10
-508.00000000000006
20
300.5
10
-528
20
300.5
10
-528
20
294.5
10
-508.00000000000006
20
294.5
0
LWPOLYLINE
5
117
100
AcDbEntity
8
0
100
AcDbPolyline
90
4
70
1
43
0.0
10
-418.00000000000006
20
300.5
10
-438.00000000000006
20
300.5
10
-438.00000000000006
20
294.5
10
-418.00000000000006
20
294.5
0
LWPOLYLINE
5
118
100
AcDbEntity
8
0
100
AcDbPolyline
90
4
70
1
43
0.0
10
-328.00000000000006
20
300.5
10
-348.00000000000006
20
300.5
10
-348.00000000000006
20
294.5
10
-328.00000000000006
20
294.5
0
LWPOLYLINE
5
119
100
AcDbEntity
8
0
100
AcDbPolyline
90
4
70
1
43
0.0
10
-238.00000000000006
20
300.5
10
-258.00000000000006
20
300.5
10
-258.00000000000006
20
294.5
10
-238.00000000000006
20
294.5
0
LWPOLYLINE
5
120
100
AcDbEntity
8
0
100
AcDbPolyline
90
4
70
1
43
0.0
10
-508.00000000000006
20
345.5
10
-528
20
345.5
10
-528
20
339.5
10
-508.00000000000006
20
339.5
0
LWPOLYLINE
5
121
100
AcDbEntity
8
0
100
AcDbPolyline
90
4
70
1
43
0.0
10
-418.00000000000006
20
345.5
10
-438.00000000000006
20
345.5
10
-438.00000000000006
20
339.5
10
-418.00000000000006
20
339.5
0
LWPOLYLINE
5
122
100
AcDbEntity
8
0
100
AcDbPolyline
90
4
70
1
43
0.0
10
-328.00000000000006
20
345.5
10
-348.00000000000006
20
345.5
10
-348.00000000000006
20
339.5
10
-328.00000000000006
20
339.5
0
LWPOLYLINE
5
123
100
AcDbEntity
8
0
100
AcDbPolyline
90
4
70
1
43
0.0
10
-238.00000000000006
20
345.5
10
-258.00000000000006
20
345.5
10
-258.00000000000006
20
339.5
10
-238.00000000000006
20
339.5
0
LWPOLYLINE
5
124
100
AcDbEntity
8
0
100
AcDbPolyline
90
4
70
1
43
0.0
10
-508.00000000000006
20
390.5
10
-528
20
390.5
10
-528
20
384.5
10
-508.00000000000006
20
384.5
0
LWPOLYLINE
5
125
100
AcDbEntity
8
0
100
AcDbPolyline
90
4
70
1
43
0.0
10
-418.00000000000006
20
390.5
10
-438.00000000000006
20
390.5
10
-438.00000000000006
20
384.5
10
-418.00000000000006
20
384.5
0
LWPOLYLINE
5
126
100
AcDbEntity
8
0
100
AcDbPolyline
90
4
70
1
43
0.0
10
-328.00000000000006
20
390.5
10
-348.00000000000006
20
390.5
10
-348.00000000000006
20
384.5
10
-328.00000000000006
20
384.5
0
LWPOLYLINE
5
127
100
AcDbEntity
8
0
100
AcDbPolyline
90
4
70
1
43
0.0
10
-238.00000000000006
20
390.5
10
-258.00000000000006
20
390.5
10
-258.00000000000006
20
384.5
10
-238.00000000000006
20
384.5
0
LWPOLYLINE
5
128
100
AcDbEntity
8
0
100
AcDbPolyline
90
4
70
1
43
0.0
10
-508.00000000000006
20
435.5
10
-528
20
435.5
10
-528
20
429.5
10
-508.00000000000006
20
429.5
0
LWPOLYLINE
5
129
100
AcDbEntity
8
0
100
AcDbPolyline
90
4
70
1
43
0.0
10
-418.00000000000006
20
435.5
10
-438.00000000000006
20
435.5
10
-438.00000000000006
20
429.5
10
-418.00000000000006
20
429.5
0
LWPOLYLINE
5
130
100
AcDbEntity
8
0
100
AcDbPolyline
90
4
70
1
43
0.0
10
-328.00000000000006
20
435.5
10
-348.00000000000006
20
435.5
10
-348.00000000000006
20
429.5
10
-328.00000000000006
20
429.5
0
LWPOLYLINE
5
131
100
AcDbEntity
8
0
100
AcDbPolyline
90
4
70
1
43
0.0
10
-238.00000000000006
20
435.5
10
-258.00000000000006
20
435.5
10
-258.00000000000006
20
429.5
10
-238.00000000000006
20
429.5
0
LWPOLYLINE
5
132
100
AcDbEntity
8
0
100
AcDbPolyline
90
4
70
1
43
0.0
10
-472
20
120.5
10
-492
20
120.5
10
-492
20
114.50000000000001
10
-472
20
114.50000000000001
0
LWPOLYLINE
5
133
100
AcDbEntity
8
0
100
AcDbPolyline
90
4
70
1
43
0.0
10
-402
20
120.5
10
-402
20
114.50000000000001
10
-382
20
114.50000000000001
10
-382
20
120.5
0
LWPOLYLINE
5
134
100
AcDbEntity
8
0
100
AcDbPolyline
90
4
70
1
43
0.0
10
-312
20
120.5
10
-312
20
114.50000000000001
10
-292
20
114.50000000000001
10
-292
20
120.5
0
LWPOLYLINE
5
135
100
AcDbEntity
8
0
100
AcDbPolyline
90
4
70
1
43
0.0
10
-222.00000000000003
20
120.5
10
-222.00000000000003
20
114.50000000000001
10
-202.00000000000003
20
114.50000000000001
10
-202.00000000000003
20
120.5
0
LWPOLYLINE
5
136
100
AcDbEntity
8
0
100
AcDbPolyline
90
4
70
1
43
0.0
10
-492
20
165.5
10
-492
20
159.5
10
-472
20
159.5
10
-472
20
165.5
0
LWPOLYLINE
5
137
100
AcDbEntity
8
0
100
AcDbPolyline
90
4
70
1
43
0.0
10
-402
20
165.5
10
-402
20
159.5
10
-382
20
159.5
10
-382
20
165.5
0
LWPOLYLINE
5
138
100
AcDbEntity
8
0
100
AcDbPolyline
90
4
70
1
43
0.0
10
-312
20
165.5
10
-312
20
159.5
10
-292
20
159.5
10
-292
20
165.5
0
LWPOLYLINE
5
139
100
AcDbEntity
8
0
100
AcDbPolyline
90
4
70
1
43
0.0
10
-222.00000000000003
20
165.5
10
-222.00000000000003
20
159.5
10
-202.00000000000003
20
159.5
10
-202.00000000000003
20
165.5
0
LWPOLYLINE
5
140
100
AcDbEntity
8
0
100
AcDbPolyline
90
4
70
1
43
0.0
10
-492
20
210.5
10
-492
20
204.50000000000003
10
-472
20
204.50000000000003
10
-472
20
210.5
0
LWPOLYLINE
5
141
100
AcDbEntity
8
0
100
AcDbPolyline
90
4
70
1
43
0.0
10
-402
20
210.5
10
-402
20
204.50000000000003
10
-382
20
204.50000000000003
10
-382
20
210.5
0
LWPOLYLINE
5
142
100
AcDbEntity
8
0
100
AcDbPolyline
90
4
70
1
43
0.0
10
-312
20
210.5
10
-312
20
204.50000000000003
10
-292
20
204.50000000000003
10
-292
20
210.5
0
LWPOLYLINE
5
143
100
AcDbEntity
8
0
100
AcDbPolyline
90
4
70
1
43
0.0
10
-222.00000000000003
20
210.5
10
-222.00000000000003
20
204.50000000000003
10
-202.00000000000003
20
204.50000000000003
10
-202.00000000000003
20
210.5
0
LWPOLYLINE
5
144
100
AcDbEntity
8
0
100
AcDbPolyline
90
4
70
1
43
0.0
10
-492
20
255.5
10
-492
20
249.50000000000003
10
-472
20
249.50000000000003
10
-472
20
255.5
0
LWPOLYLINE
5
145
100
AcDbEntity
8
0
100
AcDbPolyline
90
4
70
1
43
0.0
10
-402
20
255.5
10
-402
20
249.50000000000003
10
-382
20
249.50000000000003
10
-382
20
255.5
0
LWPOLYLINE
5
146
100
AcDbEntity
8
0
100
AcDbPolyline
90
4
70
1
43
0.0
10
-312
20
255.5
10
-312
20
249.50000000000003
10
-292
20
249.50000000000003
10
-292
20
255.5
0
LWPOLYLINE
5
147
100
AcDbEntity
8
0
100
AcDbPolyline
90
4
70
1
43
0.0
10
-222.00000000000003
20
255.5
10
-222.00000000000003
20
249.50000000000003
10
-202.00000000000003
20
249.50000000000003
10
-202.00000000000003
20
255.5
0
LWPOLYLINE
5
148
100
AcDbEntity
8
0
100
AcDbPolyline
90
4
70
1
43
0.0
10
-492
20
300.5
10
-492
20
294.5
10
-472
20
294.5
10
-472
20
300.5
0
LWPOLYLINE
5
149
100
AcDbEntity
8
0
100
AcDbPolyline
90
4
70
1
43
0.0
10
-402
20
300.5
10
-402
20
294.5
10
-382
20
294.5
10
-382
20
300.5
0
LWPOLYLINE
5
150
100
AcDbEntity
8
0
100
AcDbPolyline
90
4
70
1
43
0.0
10
-312
20
300.5
10
-312
20
294.5
10
-292
20
294.5
10
-292
20
300.5
0
LWPOLYLINE
5
151
100
AcDbEntity
8
0
100
AcDbPolyline
90
4
70
1
43
0.0
10
-222.00000000000003
20
300.5
10
-222.00000000000003
20
294.5
10
-202.00000000000003
20
294.5
10
-202.00000000000003
20
300.5
0
LWPOLYLINE
5
152
100
AcDbEntity
8
0
100
AcDbPolyline
90
4
70
1
43
0.0
10
-492
20
345.5
10
-492
20
339.5
10
-472
20
339.5
10
-472
20
345.5
0
LWPOLYLINE
5
153
100
AcDbEntity
8
0
100
AcDbPolyline
90
4
70
1
43
0.0
10
-402
20
345.5
10
-402
20
339.5
10
-382
20
339.5
10
-382
20
345.5
0
LWPOLYLINE
5
154
100
AcDbEntity
8
0
100
AcDbPolyline
90
4
70
1
43
0.0
10
-312
20
345.5
10
-312
20
339.5
10
-292
20
339.5
10
-292
20
345.5
0
LWPOLYLINE
5
155
100
AcDbEntity
8
0
100
AcDbPolyline
90
4
70
1
43
0.0
10
-222.00000000000003
20
345.5
10
-222.00000000000003
20
339.5
10
-202.00000000000003
20
339.5
10
-202.00000000000003
20
345.5
0
LWPOLYLINE
5
156
100
AcDbEntity
8
0
100
AcDbPolyline
90
4
70
1
43
0.0
10
-492
20
390.5
10
-492
20
384.5
10
-472
20
384.5
10
-472
20
390.5
0
LWPOLYLINE
5
157
100
AcDbEntity
8
0
100
AcDbPolyline
90
4
70
1
43
0.0
10
-402
20
390.5
10
-402
20
384.5
10
-382
20
384.5
10
-382
20
390.5
0
LWPOLYLINE
5
158
100
AcDbEntity
8
0
100
AcDbPolyline
90
4
70
1
43
0.0
10
-312
20
390.5
10
-312
20
384.5
10
-292
20
384.5
10
-292
20
390.5
0
LWPOLYLINE
5
159
100
AcDbEntity
8
0
100
AcDbPolyline
90
4
70
1
43
0.0
10
-222.00000000000003
20
390.5
10
-222.00000000000003
20
384.5
10
-202.00000000000003
20
384.5
10
-202.00000000000003
20
390.5
0
LWPOLYLINE
5
160
100
AcDbEntity
8
0
100
AcDbPolyline
90
4
70
1
43
0.0
10
-492
20
435.5
10
-492
20
429.5
10
-472
20
429.5
10
-472
20
435.5
0
LWPOLYLINE
5
161
100
AcDbEntity
8
0
100
AcDbPolyline
90
4
70
1
43
0.0
10
-402
20
435.5
10
-402
20
429.5
10
-382
20
429.5
10
-382
20
435.5
0
LWPOLYLINE
5
162
100
AcDbEntity
8
0
100
AcDbPolyline
90
4
70
1
43
0.0
10
-312
20
435.5
10
-312
20
429.5
10
-292
20
429.5
10
-292
20
435.5
0
LWPOLYLINE
5
163
100
AcDbEntity
8
0
100
AcDbPolyline
90
4
70
1
43
0.0
10
-222.00000000000003
20
435.5
10
-222.00000000000003
20
429.5
10
-202.00000000000003
20
429.5
10
-202.00000000000003
20
435.5
0
LWPOLYLINE
5
164
100
AcDbEntity
8
0
100
AcDbPolyline
90
4
70
1
43
0.0
10
-544
20
96.000000000000014
10
-544
20
139
10
-501
20
139
10
-501
20
96.000000000000014
0
LWPOLYLINE
5
165
100
AcDbEntity
8
0
100
AcDbPolyline
90
4
70
1
43
0.0
10
-730
20
-10
10
0
20
-10
10
0
20
560
10
-730
20
560
0
ENDSEC
0
SECTION
2
OBJECTS
0
DICTIONARY
5
C
100
AcDbDictionary
3
ACAD_GROUP
350
D
3
ACAD_MLINESTYLE
350
17
0
DICTIONARY
5
D
100
AcDbDictionary
0
DICTIONARY
5
1A
330
C
100
AcDbDictionary
0
DICTIONARY
5
17
100
AcDbDictionary
0
ENDSEC
0
EOF
