0
SECTION
2
HEADER
9
$INSUNITS
70
4
9
$ACADVER
1
AC1014
9
$HANDSEED
5
FFFF
0
ENDSEC
0
SECTION
2
TABLES
0
TABLE
2
VPORT
5
8
100
AcDbSymbolTable
0
ENDTAB
0
TABLE
2
LTYPE
5
5
100
AcDbSymbolTable
0
LTYPE
5
14
100
AcDbSymbolTableRecord
100
AcDbLinetypeTableRecord
2
BYBLOCK
70
0
0
LTYPE
5
15
100
AcDbSymbolTableRecord
100
AcDbLinetypeTableRecord
2
BYLAYER
70
0
0
ENDTAB
0
TABLE
2
LAYER
5
2
100
AcDbSymbolTable
70
2
0
LAYER
5
50
100
AcDbSymbolTableRecord
100
AcDbLayerTableRecord
2
0
70
0
6
CONTINUOUS
0
ENDTAB
0
TABLE
2
STYLE
5
3
100
AcDbSymbolTable
70
1
0
STYLE
5
11
100
AcDbSymbolTableRecord
100
AcDbTextStyleTableRecord
2
STANDARD
70
0
0
ENDTAB
0
TABLE
2
VIEW
5
6
100
AcDbSymbolTable
70
0
0
ENDTAB
0
TABLE
2
UCS
5
7
100
AcDbSymbolTable
70
0
0
ENDTAB
0
TABLE
2
APPID
5
9
100
AcDbSymbolTable
70
2
0
APPID
5
12
100
AcDbSymbolTableRecord
100
AcDbRegAppTableRecord
2
ACAD
70
0
0
ENDTAB
0
TABLE
2
DIMSTYLE
5
A
100
AcDbSymbolTable
70
1
0
ENDTAB
0
TABLE
2
BLOCK_RECORD
5
1
100
AcDbSymbolTable
70
1
0
BLOCK_RECORD
5
1F
100
AcDbSymbolTableRecord
100
AcDbBlockTableRecord
2
*MODEL_SPACE
0
BLOCK_RECORD
5
1B
100
AcDbSymbolTableRecord
100
AcDbBlockTableRecord
2
*PAPER_SPACE
0
ENDTAB
0
ENDSEC
0
SECTION
2
BLOCKS
0
BLOCK
5
20
100
AcDbEntity
100
AcDbBlockBegin
2
*MODEL_SPACE
0
ENDBLK
5
21
100
AcDbEntity
100
AcDbBlockEnd
0
BLOCK
5
1C
100
AcDbEntity
100
AcDbBlockBegin
2
*PAPER_SPACE
0
ENDBLK
5
1D
100
AcDbEntity
100
AcDbBlockEnd
0
ENDSEC
0
SECTION
2
ENTITIES
0
CIRCLE
5
100
100
AcDbEntity
8
0
100
AcDbCircle
10
135
20
100
30
0
40
2.5
210
0
220
0
230
1
0
CIRCLE
5
101
100
AcDbEntity
8
0
100
AcDbCircle
10
535
20
100
30
0
40
2.5
210
0
220
0
230
1
0
CIRCLE
5
102
100
AcDbEntity
8
0
100
AcDbCircle
10
335
20
10
30
0
40
2.5
210
0
220
0
230
1
0
CIRCLE
5
103
100
AcDbEntity
8
0
100
AcDbCircle
10
35
20
10
30
0
40
2.5
210
0
220
0
230
1
0
CIRCLE
5
104
100
AcDbEntity
8
0
100
AcDbCircle
10
35
20
100
30
0
40
2.5
210
0
220
0
230
1
0
CIRCLE
5
105
100
AcDbEntity
8
0
100
AcDbCircle
10
235
20
10
30
0
40
2.5
210
0
220
0
230
1
0
CIRCLE
5
106
100
AcDbEntity
8
0
100
AcDbCircle
10
554
20
75
30
0
40
2.5
210
0
220
0
230
1
0
CIRCLE
5
107
100
AcDbEntity
8
0
100
AcDbCircle
10
235
20
100
30
0
40
2.5
210
0
220
0
230
1
0
CIRCLE
5
108
100
AcDbEntity
8
0
100
AcDbCircle
10
16
20
75
30
0
40
2.5
210
0
220
0
230
1
0
CIRCLE
5
109
100
AcDbEntity
8
0
100
AcDbCircle
10
435
20
100
30
0
40
2.5
210
0
220
0
230
1
0
CIRCLE
5
110
100
AcDbEntity
8
0
100
AcDbCircle
10
535
20
10
30
0
40
2.5
210
0
220
0
230
1
0
LWPOLYLINE
5
111
100
AcDbEntity
8
0
100
AcDbPolyline
90
12
70
1
43
0.0
10
384.00000000000011
20
60.999999999999972
10
384.00000000000011
20
54.999999999999972
10
385.50000000000006
20
54.999999999999972
10
385.50000000000006
20
52
10
404.5
20
52
10
404.5
20
55.000000000000014
10
406.00000000000011
20
55.000000000000014
10
406.00000000000011
20
61.000000000000021
10
404.5
20
61.000000000000021
10
404.5
20
64
10
385.50000000000006
20
64
10
385.50000000000006
20
60.999999999999972
0
LWPOLYLINE
5
112
100
AcDbEntity
8
0
100
AcDbPolyline
90
8
70
1
43
0.0
10
377
20
5
10
413.00000000000006
20
5
42
0.4142135623731138
10
416
20
8.0000000000000036
10
416
20
29.000000000000028
42
0.4142135623730846
10
413.00000000000006
20
32
10
377
20
32
42
0.41421356237309936
10
374.00000000000006
20
29.000000000000004
10
374.00000000000006
20
7.9999999999999716
42
0.41421356237309176
0
CIRCLE
5
113
100
AcDbEntity
8
0
100
AcDbCircle
10
135
20
10
30
0
40
2.5
210
0
220
0
230
1
0
CIRCLE
5
114
100
AcDbEntity
8
0
100
AcDbCircle
10
554
20
35
30
0
40
2.5
210
0
220
0
230
1
0
CIRCLE
5
115
100
AcDbEntity
8
0
100
AcDbCircle
10
335
20
100
30
0
40
2.5
210
0
220
0
230
1
0
CIRCLE
5
116
100
AcDbEntity
8
0
100
AcDbCircle
10
16
20
35
30
0
40
2.5
210
0
220
0
230
1
0
CIRCLE
5
117
100
AcDbEntity
8
0
100
AcDbCircle
10
325
20
79.999999999999986
30
0
40
2.5
210
0
220
0
230
1
0
CIRCLE
5
118
100
AcDbEntity
8
0
100
AcDbCircle
10
245
20
79.999999999999986
30
0
40
2.5
210
0
220
0
230
1
0
CIRCLE
5
119
100
AcDbEntity
8
0
100
AcDbCircle
10
325
20
30
30
0
40
2.5
210
0
220
0
230
1
0
CIRCLE
5
120
100
AcDbEntity
8
0
100
AcDbCircle
10
285
20
55
30
0
40
12.5
210
0
220
0
230
1
0
CIRCLE
5
121
100
AcDbEntity
8
0
100
AcDbCircle
10
245
20
30
30
0
40
2.5
210
0
220
0
230
1
0
LWPOLYLINE
5
122
100
AcDbEntity
8
0
100
AcDbPolyline
90
4
70
1
43
0.0
10
0
20
0
10
0
20
110
10
570
20
110
10
570
20
0
0
CIRCLE
5
123
100
AcDbEntity
8
0
100
AcDbCircle
10
135
20
100
30
0
40
2.5
210
0
220
0
230
1
0
CIRCLE
5
124
100
AcDbEntity
8
0
100
AcDbCircle
10
535
20
100
30
0
40
2.5
210
0
220
0
230
1
0
CIRCLE
5
125
100
AcDbEntity
8
0
100
AcDbCircle
10
335
20
10
30
0
40
2.5
210
0
220
0
230
1
0
CIRCLE
5
126
100
AcDbEntity
8
0
100
AcDbCircle
10
35
20
10
30
0
40
2.5
210
0
220
0
230
1
0
CIRCLE
5
127
100
AcDbEntity
8
0
100
AcDbCircle
10
35
20
100
30
0
40
2.5
210
0
220
0
230
1
0
CIRCLE
5
128
100
AcDbEntity
8
0
100
AcDbCircle
10
235
20
10
30
0
40
2.5
210
0
220
0
230
1
0
CIRCLE
5
129
100
AcDbEntity
8
0
100
AcDbCircle
10
554
20
75
30
0
40
2.5
210
0
220
0
230
1
0
CIRCLE
5
130
100
AcDbEntity
8
0
100
AcDbCircle
10
235
20
100
30
0
40
2.5
210
0
220
0
230
1
0
CIRCLE
5
131
100
AcDbEntity
8
0
100
AcDbCircle
10
16
20
75
30
0
40
2.5
210
0
220
0
230
1
0
CIRCLE
5
132
100
AcDbEntity
8
0
100
AcDbCircle
10
435
20
100
30
0
40
2.5
210
0
220
0
230
1
0
CIRCLE
5
133
100
AcDbEntity
8
0
100
AcDbCircle
10
535
20
10
30
0
40
2.5
210
0
220
0
230
1
0
LWPOLYLINE
5
134
100
AcDbEntity
8
0
100
AcDbPolyline
90
12
70
1
43
0.0
10
406.00000000000011
20
61.000000000000021
10
406.00000000000011
20
55.000000000000014
10
404.5
20
55.000000000000014
10
404.5
20
51.999999999999993
10
385.50000000000011
20
52
10
385.50000000000006
20
54.999999999999964
10
384.00000000000006
20
54.999999999999972
10
384.00000000000011
20
60.999999999999979
10
385.50000000000011
20
60.999999999999972
10
385.50000000000006
20
64
10
404.5
20
64
10
404.5
20
61.000000000000014
0
LWPOLYLINE
5
135
100
AcDbEntity
8
0
100
AcDbPolyline
90
8
70
1
43
0.0
10
377
20
31.999999999999996
10
413.00000000000006
20
31.999999999999929
42
-0.41421356237309503
10
415.99999999999994
20
29.000000000000028
10
416
20
8.0000000000000036
42
-0.41421356237309503
10
413.00000000000006
20
5
10
377
20
5
42
-0.41421356237309503
10
374.00000000000006
20
7.9999999999999716
10
374.00000000000006
20
29.000000000000004
42
-0.41421356237309503
0
CIRCLE
5
136
100
AcDbEntity
8
0
100
AcDbCircle
10
135
20
10
30
0
40
2.5
210
0
220
0
230
1
0
CIRCLE
5
137
100
AcDbEntity
8
0
100
AcDbCircle
10
554
20
35
30
0
40
2.5
210
0
220
0
230
1
0
CIRCLE
5
138
100
AcDbEntity
8
0
100
AcDbCircle
10
335
20
100
30
0
40
2.5
210
0
220
0
230
1
0
CIRCLE
5
139
100
AcDbEntity
8
0
100
AcDbCircle
10
16
20
35
30
0
40
2.5
210
0
220
0
230
1
0
CIRCLE
5
140
100
AcDbEntity
8
0
100
AcDbCircle
10
325
20
79.999999999999986
30
0
40
2.5
210
0
220
0
230
1
0
CIRCLE
5
141
100
AcDbEntity
8
0
100
AcDbCircle
10
245
20
79.999999999999986
30
0
40
2.5
210
0
220
0
230
1
0
CIRCLE
5
142
100
AcDbEntity
8
0
100
AcDbCircle
10
325
20
30
30
0
40
2.5
210
0
220
0
230
1
0
CIRCLE
5
143
100
AcDbEntity
8
0
100
AcDbCircle
10
285
20
55
30
0
40
12.5
210
0
220
0
230
1
0
CIRCLE
5
144
100
AcDbEntity
8
0
100
AcDbCircle
10
245
20
30
30
0
40
2.5
210
0
220
0
230
1
0
LWPOLYLINE
5
145
100
AcDbEntity
8
0
100
AcDbPolyline
90
4
70
1
43
0.0
10
0
20
110
10
570
20
110
10
570
20
1.7256332301709633e-30
10
0
20
0
0
CIRCLE
5
146
100
AcDbEntity
8
0
100
AcDbCircle
10
50
20
30
30
0
40
2.0000000000000018
210
0
220
0
230
1
0
LWPOLYLINE
5
147
100
AcDbEntity
8
0
100
AcDbPolyline
90
4
70
1
43
0.0
10
97.449943911773317
20
43.99999916553498
10
52.550056088226654
20
43.999999165534973
42
0.034710692404279167
10
54.287684258755107
20
41.000000834465041
10
95.712315741244851
20
41.000000834465034
42
0.034710692404282581
0
LWPOLYLINE
5
148
100
AcDbEntity
8
0
100
AcDbPolyline
90
4
70
1
43
0.0
10
50.730678007278016
20
61.000000834465062
10
99.269321992721984
20
61.000000834465027
42
0.031485891506834944
10
98.323807901377734
20
63.999999165534966
10
51.676192098622273
20
63.99999916553498
42
0.031485891506831627
0
LWPOLYLINE
5
149
100
AcDbEntity
8
0
100
AcDbPolyline
90
4
70
1
43
0.0
10
95.712315741244879
20
68.999999165534987
10
54.287684258755135
20
68.999999165534973
42
0.034710692404277967
10
52.550056088226675
20
66.000000834465055
10
97.449943911773317
20
66.000000834465041
42
0.034710692404280971
0
LWPOLYLINE
5
150
100
AcDbEntity
8
0
100
AcDbPolyline
90
4
70
1
43
0.0
10
51.676192098622266
20
46.000000834465062
10
98.323807901377734
20
46.000000834465027
42
0.031485891506835381
10
99.269321992721999
20
48.999999165534973
10
50.730678007278001
20
48.999999165534973
42
0.031485891506832071
0
CIRCLE
5
151
100
AcDbEntity
8
0
100
AcDbCircle
10
100
20
30
30
0
40
1.9999999999999929
210
0
220
0
230
1
0
CIRCLE
5
152
100
AcDbEntity
8
0
100
AcDbCircle
10
50
20
80
30
0
40
2.0000000000000018
210
0
220
0
230
1
0
LWPOLYLINE
5
153
100
AcDbEntity
8
0
100
AcDbPolyline
90
4
70
1
43
0.0
10
58.75192221493046
20
36.00000083446502
10
91.24807778506954
20
36.000000834465027
42
0.042228763564852813
10
94.20937201725026
20
38.999999165534952
10
55.790627982749697
20
38.99999916553498
42
0.042228763564850162
0
LWPOLYLINE
5
154
100
AcDbEntity
8
0
100
AcDbPolyline
90
4
70
1
43
0.0
10
50.020008039811756
20
56.000000834465027
10
99.979991960188244
20
56.000000834465027
42
0.030179135027124094
10
99.677925493763041
20
58.999999165534973
10
50.322074506236959
20
58.999999165534973
42
0.030179135027121093
0
LWPOLYLINE
5
155
100
AcDbEntity
8
0
100
AcDbPolyline
90
4
70
1
43
0.0
10
82.00000286102231
20
78.999999165534973
10
67.99999713897769
20
78.999999165534973
42
0.072556626872004884
10
61.43534132561868
20
76.000000834465013
10
88.56465867438132
20
76.000000834465027
42
0.072556626872007909
0
LWPOLYLINE
5
156
100
AcDbEntity
8
0
100
AcDbPolyline
90
4
70
1
43
0.0
10
55.790627982749719
20
71.000000834465027
10
94.209372017250274
20
71.000000834465027
42
0.042228763564851161
10
91.248077785069555
20
73.999999165534959
10
58.75192221493046
20
73.999999165534959
42
0.042228763564848178
0
LWPOLYLINE
5
157
100
AcDbEntity
8
0
100
AcDbPolyline
90
4
70
1
43
0.0
10
99.979991960188244
20
53.999999165534973
10
50.020008039811756
20
53.999999165534973
42
0.030179135027121787
10
50.322074506236959
20
51.000000834465027
10
99.677925493763041
20
51.000000834465027
42
0.030179135027124323
0
LWPOLYLINE
5
158
100
AcDbEntity
8
0
100
AcDbPolyline
90
4
70
1
43
0.0
10
67.999997138977704
20
31.000000834465027
10
82.00000286102231
20
31.000000834465027
42
0.072556626872011712
10
88.56465867438132
20
33.999999165534987
10
61.435341325618694
20
33.999999165534959
42
0.072556626872008395
0
CIRCLE
5
159
100
AcDbEntity
8
0
100
AcDbCircle
10
100
20
80
30
0
40
1.9999999999999929
210
0
220
0
230
1
0
CIRCLE
5
160
100
AcDbEntity
8
0
100
AcDbCircle
10
50
20
30
30
0
40
2.0000000000000018
210
0
220
0
230
1
0
LWPOLYLINE
5
161
100
AcDbEntity
8
0
100
AcDbPolyline
90
4
70
1
43
0.0
10
95.712315741244851
20
41.000000834465027
10
54.287684258755107
20
41.000000834465034
42
-0.034710692404279958
10
52.550056088226654
20
43.999999165534973
10
97.449943911773346
20
43.999999165534987
42
-0.034710692404280402
0
LWPOLYLINE
5
162
100
AcDbEntity
8
0
100
AcDbPolyline
90
4
70
1
43
0.0
10
51.676192098622273
20
63.999999165534973
10
98.323807901377734
20
63.999999165534966
42
-0.031485891506833383
10
99.269321992721984
20
61.000000834465027
10
50.73067800727803
20
61.000000834465105
42
-0.031485891506832717
0
LWPOLYLINE
5
163
100
AcDbEntity
8
0
100
AcDbPolyline
90
4
70
1
43
0.0
10
97.449943911773346
20
66.000000834465027
10
52.550056088226647
20
66.000000834464984
42
-0.034710692404280624
10
54.287684258755142
20
68.999999165534973
10
95.712315741244879
20
68.999999165534973
42
-0.03471069240428018
0
LWPOLYLINE
5
164
100
AcDbEntity
8
0
100
AcDbPolyline
90
4
70
1
43
0.0
10
50.730678007278023
20
48.999999165534973
10
99.269321992721999
20
48.999999165534966
42
-0.031485891506833383
10
98.323807901377734
20
46.000000834465027
10
51.676192098622266
20
46.000000834465098
42
-0.031485891506832717
0
CIRCLE
5
165
100
AcDbEntity
8
0
100
AcDbCircle
10
100
20
30
30
0
40
1.9999999999999929
210
0
220
0
230
1
0
CIRCLE
5
166
100
AcDbEntity
8
0
100
AcDbCircle
10
50
20
80
30
0
40
2.0000000000000018
210
0
220
0
230
1
0
LWPOLYLINE
5
167
100
AcDbEntity
8
0
100
AcDbPolyline
90
4
70
1
43
0.0
10
55.790627982749719
20
38.999999165534973
10
94.209372017250274
20
38.999999165534959
42
-0.042228763564850481
10
91.24807778506954
20
36.000000834465027
10
58.75192221493046
20
36.000000834465034
42
-0.042228763564850481
0
LWPOLYLINE
5
168
100
AcDbEntity
8
0
100
AcDbPolyline
90
4
70
1
43
0.0
10
50.322074506236959
20
58.999999165534973
10
99.677925493763041
20
58.999999165534973
42
-0.030179135027122696
10
99.979991960188244
20
56.000000834465027
10
50.020008039811749
20
56.00000083446502
42
-0.030179135027122696
0
LWPOLYLINE
5
169
100
AcDbEntity
8
0
100
AcDbPolyline
90
4
70
1
43
0.0
10
88.56465867438132
20
76.000000834465027
10
61.43534132561868
20
76.000000834465027
42
-0.072556626872008284
10
67.99999713897769
20
78.999999165534973
10
82.00000286102231
20
78.999999165534987
42
-0.072556626872008284
0
LWPOLYLINE
5
170
100
AcDbEntity
8
0
100
AcDbPolyline
90
4
70
1
43
0.0
10
58.75192221493046
20
73.999999165534973
10
91.24807778506954
20
73.999999165534959
42
-0.042228763564850481
10
94.209372017250274
20
71.000000834465027
10
55.79062798274974
20
71.000000834465041
42
-0.04222876356485037
0
LWPOLYLINE
5
171
100
AcDbEntity
8
0
100
AcDbPolyline
90
4
70
1
43
0.0
10
99.677925493763041
20
51.000000834465027
10
50.322074506236959
20
51.000000834465027
42
-0.030179135027122696
10
50.020008039811756
20
53.999999165534973
10
99.979991960188258
20
53.99999916553498
42
-0.030179135027122696
0
LWPOLYLINE
5
172
100
AcDbEntity
8
0
100
AcDbPolyline
90
4
70
1
43
0.0
10
61.43534132561868
20
33.999999165534973
10
88.564658674381334
20
33.999999165534973
42
-0.072556626872008284
10
82.00000286102231
20
31.000000834465027
10
67.99999713897769
20
31.00000083446502
42
-0.072556626872008284
0
CIRCLE
5
173
100
AcDbEntity
8
0
100
AcDbCircle
10
100
20
80
30
0
40
1.9999999999999929
210
0
220
0
230
1
0
ENDSEC
0
SECTION
2
OBJECTS
0
DICTIONARY
5
C
100
AcDbDictionary
3
ACAD_GROUP
350
D
3
ACAD_MLINESTYLE
350
17
0
DICTIONARY
5
D
100
AcDbDictionary
0
DICTIONARY
5
1A
330
C
100
AcDbDictionary
0
DICTIONARY
5
17
100
AcDbDictionary
0
ENDSEC
0
EOF
